<?xml version="1.0" encoding="utf-8"?>
<!-- Generator: Adobe Illustrator 19.1.0, SVG Export Plug-In . SVG Version: 6.00 Build 0)  -->
<svg version="1.1" id="Layer_1" xmlns="http://www.w3.org/2000/svg" xmlns:xlink="http://www.w3.org/1999/xlink" x="0px" y="0px"
	viewBox="-247 138.5 304 324.5" enable-background="new -247 138.5 304 324.5" xml:space="preserve">
<g id="Layer_2">
	<g display="none">
		<path display="inline" fill="#FFFFFF" d="M-110.6,93.8c0,0,2.8-1.1,2.3-3.5c0,0-0.2-3.4-6.8-3.5c0,0-15.1-1.1-18,7.7
			c0,0-4.2,10.3,7.8,25.7l-0.1,44.9h33.2v-45.6c0,0,6.5-7.7,6.2-17.4c0,0-7.4,3-10.6-4.3c0,0-5.5,3.7-11.8-1.2c0,0-8,2.6-7.6,2.5
			c0.5-0.1,14.5,7.3,14.9,7.2c0.4-0.1,0.5,4.3-2.8,3.5l-15.6-8.2c0,0-7.4-3.7-3.5-4.6L-110.6,93.8z"/>
		<path display="inline" fill="#FFFFFF" d="M-129.6,85.3c0,0,4.3-1.7,8.4-2.3V72c0,0-3.9-4.6-8.4,0V85.3z"/>
		<path display="inline" fill="#FFFFFF" d="M-118,83.1h8.6V72.7c0,0-4.3-4.1-8.6,0V83.1z"/>
		<path display="inline" fill="#FFFFFF" d="M-105.6,85.3V77c0,0,3.6-4.4,8.4,0v16c0,0-2.3,3.4-7.2,1.7
			C-104.4,94.7-100.9,89.3-105.6,85.3z"/>
		<path display="inline" fill="#FFFFFF" d="M-93.7,80.5c0,0,4.2-4.8,7.7,0v16.2c0,0-3.2,4.7-7.7-0.5V80.5z"/>
		<path display="inline" fill="#FFFFFF" d="M-49.2,107.7c0,0,2-0.8,1.7-2.6c0,0-0.2-2.5-5.1-2.6c0,0-11.2-0.8-13.3,5.7
			c0,0-3.1,7.6,5.8,19l-0.1,20.9h24.6v-21.4c0,0,4.8-5.7,4.6-12.9c0,0-5.5,2.2-7.8-3.2c0,0-4.1,2.7-8.7-0.9c0,0-5.9,2-5.6,1.9
			c0.4-0.1,10.7,5.4,11,5.3s0.4,3.2-2,2.6l-11.5-6c0,0-5.5-2.7-2.6-3.4L-49.2,107.7z"/>
		<path display="inline" fill="#FFFFFF" d="M-63.3,101.4c0,0,3.2-1.2,6.2-1.7v-8.2c0,0-2.9-3.4-6.2,0V101.4z"/>
		<path display="inline" fill="#FFFFFF" d="M-54.7,99.8h6.4v-7.7c0,0-3.2-3-6.4,0C-54.7,92.1-54.7,99.8-54.7,99.8z"/>
		<path display="inline" fill="#FFFFFF" d="M-45.5,101.4v-6.1c0,0,2.7-3.3,6.2,0v11.8c0,0-1.7,2.5-5.3,1.2
			C-44.6,108.3-42,104.3-45.5,101.4z"/>
		<path display="inline" fill="#FFFFFF" d="M-36.7,97.9c0,0,3.1-3.5,5.7,0v12c0,0-2.4,3.5-5.7-0.4C-36.7,109.5-36.7,97.9-36.7,97.9z
			"/>
		<path display="inline" fill="#FFFFFF" d="M-170.2,107.7c0,0,2-0.8,1.7-2.6c0,0-0.2-2.5-5.1-2.6c0,0-11.2-0.8-13.3,5.7
			c0,0-3.1,7.6,5.8,19l-0.1,20.9h24.6v-21.4c0,0,4.8-5.7,4.6-12.9c0,0-5.5,2.2-7.8-3.2c0,0-4.1,2.7-8.7-0.9c0,0-5.9,2-5.6,1.9
			s10.7,5.4,11,5.3s0.4,3.2-2,2.6l-11.5-6c0,0-5.5-2.7-2.6-3.4L-170.2,107.7z"/>
		<path display="inline" fill="#FFFFFF" d="M-184.3,101.4c0,0,3.2-1.2,6.2-1.7v-8.2c0,0-2.9-3.4-6.2,0V101.4z"/>
		<path display="inline" fill="#FFFFFF" d="M-175.7,99.8h6.4v-7.7c0,0-3.2-3-6.4,0V99.8z"/>
		<path display="inline" fill="#FFFFFF" d="M-166.5,101.4v-6.1c0,0,2.7-3.3,6.2,0v11.8c0,0-1.7,2.5-5.3,1.2
			C-165.6,108.3-163,104.3-166.5,101.4z"/>
		<path display="inline" fill="#FFFFFF" d="M-157.7,97.9c0,0,3.1-3.5,5.7,0v12c0,0-2.4,3.5-5.7-0.4V97.9z"/>
	</g>
	<g display="none">
		<path display="inline" fill="#002430" stroke="#1ABC9C" stroke-width="5" stroke-miterlimit="10" d="M-379.6,284.4
			c14.5,1.4,52.7,1.6,89.1-28.1c0,0,25.6,33.2,85.6,29.1c3.2-0.2,5.9,2.3,5.9,5.5v77.9c0,3.2-0.4,6.4-1.2,9.5
			c-4.3,16.7-22.5,66.6-90.3,92.2c0,0-76.9-20.3-94.2-91c-0.7-2.9-1.1-5.9-1.1-9v-80.6C-385.7,286.7-382.9,284.1-379.6,284.4z"/>
		<path display="inline" fill="#053947" stroke="#1ABC9C" stroke-width="5" stroke-miterlimit="10" d="M-290.4,470.6
			c0,0-76.9-20.3-94.2-91c-0.7-2.9-1.1-5.9-1.1-9V290c0-3.3,2.8-5.9,6.1-5.5c14.5,1.4,52.7,1.6,89.1-28.1"/>
		<path display="inline" fill="#E74C3C" d="M-242.8,471.4c0,0,57.1-77.3,56.6-77.2s26.3-4.3,26.3-4.3l-2.6,27.8L-242.8,471.4z"/>
		<polygon display="inline" fill="#E74C3C" points="-232.1,477.7 -168.4,439.6 -159.1,440.5 -163.9,448.7 		"/>
		<path display="inline" fill="#E74C3C" d="M-344.1,471.4c0,0-57.1-77.3-56.6-77.2s-26.3-4.3-26.3-4.3l2.6,27.8L-344.1,471.4z"/>
		<polygon display="inline" fill="#E74C3C" points="-354.8,477.7 -418.4,439.6 -427.8,440.5 -423,448.7 		"/>
		<g display="inline">
			<path fill="#FFFFFF" d="M-311.1,442c0,0,2.3-1.1,4.5-2.9c1.1-0.9,2.2-2,3-3.2c1.1,1.5,2.5,3.1,4,4.5c3.5,3.4,7.4,6.2,7.4,6.2
				s-2.3-2.2-4.6-5.1c-2.3-2.9-4.6-6.5-4.8-9.6c-0.2-3.3,3.1-8.5,7.1-13.8c5-6.6,11.2-13.2,11.2-13.2s-6.8,6-12.7,12.1
				c-3.5,3.6-6.6,7.2-8.3,10.1c-1.9-2.8-4.9-5.7-7.6-8.1c-3.7-3.3-6.8-5.5-6.8-5.5s2.9,2.8,6,6.6s6.3,8.3,6.6,11.4
				c0.3,2.9-1.2,5.7-2.6,7.6C-309.9,440.9-311.1,442-311.1,442z"/>
			<path fill="#FFFFFF" d="M-264.4,442.1v-3.2l0,0c0.6,0,1-0.2,1.3-0.5c0.3-0.3,0.5-0.9,0.5-1.7v-11.9c0-0.8-0.2-1.3-0.5-1.7
				c-0.3-0.3-0.8-0.5-1.3-0.5l0,0v-3.2l0,0c1.1,0,2.1,0.2,2.9,0.6c0.8,0.4,1.4,1.1,1.8,1.9c0.4,0.8,0.6,1.8,0.6,3v11.5
				c0,1.2-0.2,2.2-0.6,3c-0.4,0.8-1,1.5-1.8,1.9C-262.3,441.9-263.3,442.1-264.4,442.1L-264.4,442.1z M-320.4,423h6v-3.2h-9.5v22.1
				h9.5v-3.2h-6v-6.5h4.8V429h-4.8V423L-320.4,423z M-264.4,419.5v3.2c-0.6,0-1,0.2-1.3,0.5c-0.3,0.3-0.5,0.9-0.5,1.7v11.9
				c0,0.8,0.2,1.3,0.5,1.7c0.3,0.3,0.8,0.5,1.3,0.5v3.2c-1.1,0-2.1-0.2-2.9-0.6c-0.8-0.4-1.4-1.1-1.8-1.9c-0.4-0.8-0.6-1.8-0.6-3
				v-11.5c0-1.2,0.2-2.2,0.6-3c0.4-0.8,1-1.5,1.8-1.9C-266.5,419.8-265.6,419.6-264.4,419.5L-264.4,419.5z M-292.9,419.8v3.2h6.3
				l-6.6,15.8v3.1h10.1v-3.2h-6.6l6.6-15.8v-3.1H-292.9L-292.9,419.8z M-277.5,423h6v-3.2h-9.5v22.1h9.5v-3.2h-6v-6.5h4.8V429h-4.8
				V423z"/>
			<path fill="#FFFFFF" d="M-301.6,419c0-1.7-1.4-3-3-3c-1.7,0-3,1.4-3,3c0,1.7,1.4,3,3,3C-302.9,422-301.6,420.7-301.6,419z"/>
			<text transform="matrix(1 0 0 1 -259.4565 421.6707)" fill="#FFFFFF" font-family="'Arial-BoldMT'" font-size="2.6247px">TM</text>
		</g>
		<polyline display="inline" fill="none" stroke="#1ABC9C" stroke-width="7" stroke-miterlimit="10" points="-323.7,276.1 
			-284.3,189.2 -285.6,249.2 -253.9,242 -270.2,274.7 		"/>
		<polygon display="inline" fill="#FFFF00" points="-286.8,200.5 -323.9,279.2 -291.3,269 -291.4,314.2 -258.1,245.5 -287.3,251.7 
					"/>
		<polygon display="inline" fill="#E5DF03" points="-286.8,200.5 -300.9,264.1 -276.1,258.5 -291.4,314.2 -258.1,245.5 
			-287.3,251.7 		"/>
		<g display="inline">
			<g>
				<path fill="#FFFFFF" d="M-293,335.2c0,0,2.8-1.1,2.3-3.5c0,0-0.2-3.4-6.8-3.5c0,0-7.9-0.6-13.4,2.4c-3.2,1.7-4.9,5.3-4.4,8.9
					c0.7,5.4,3.5,16.1,13.7,25.8l-5.3,36.2h33.2l-5.8-38.1c0,0,12.5-7.4,11.2-19.9c0,0-7.4,3-10.6-4.3c0,0-5.5,3.7-11.8-1.2
					c0,0-8,2.6-7.6,2.5c0.5-0.1,14.5,7.3,14.9,7.2s0.5,4.3-2.8,3.5l-15.6-8.2c0,0-7.4-3.7-3.5-4.6L-293,335.2z"/>
				<path fill="#FFFFFF" d="M-312,326.7c0,0,4.3-1.7,8.4-2.3v-10.2c0-0.6-0.3-1.2-0.8-1.6c-1.2-1-3.9-2.4-6.9,0
					c-0.5,0.4-0.7,1-0.7,1.6L-312,326.7L-312,326.7z"/>
				<path fill="#FFFFFF" d="M-300.4,324.6h8.6v-9.4c0-0.7-0.3-1.3-0.9-1.7c-1.4-0.9-4.1-2-6.9,0c-0.5,0.4-0.8,1-0.8,1.6V324.6
					L-300.4,324.6z"/>
				<path fill="#FFFFFF" d="M-287.9,326.7v-7.4c0-0.6,0.3-1.2,0.8-1.6c1.2-1,3.7-2.3,6.9,0.1c0.5,0.4,0.8,1,0.8,1.6v15
					c0,0-2.3,3.4-7.2,1.7C-286.7,336.1-283.3,330.7-287.9,326.7z"/>
				<path fill="#FFFFFF" d="M-275.4,321.2c1.2-1,4-2.7,6.5,0c0.3,0.4,0.5,0.9,0.5,1.4v15.5c0,0-3.2,4.7-7.7-0.5v-14.9
					C-276.1,322.2-275.8,321.6-275.4,321.2z"/>
			</g>
			<path fill="#F2F2F2" d="M-314.5,339.9c0,0,12.3,22.9,23.5,19.5c0,0,7-6.6,16.6-2.3c0,0-3.2,5.5-16.1,10.2l0.1,34.3H-307l5.3-36.2
				C-301.6,365.4-313.1,352.4-314.5,339.9z"/>
			<path fill="#F2F2F2" d="M-308.8,311.5c0,0,2.8-0.7,5,2.2l0.1,10.8c0,0-1.7,0.3-3,0.6C-306.7,325-306.3,312.3-308.8,311.5z"/>
			<path fill="#F2F2F2" d="M-296.7,312.3c0,0,4.8,0.1,4.9,2.7v9.5c0,0-1.7,0-3,0C-294.8,324.6-294.2,313.1-296.7,312.3z"/>
			<path fill="#F2F2F2" d="M-284.5,316.5c0,0,1.8-0.4,3.8,1c0,0,1.2,0.6,1.2,1.9v15c0,0-1,1.4-2.9,1.9
				C-282.4,336.3-281.5,319.2-284.5,316.5z"/>
			<path fill="#F2F2F2" d="M-273.1,320c0,0,2.3-0.9,4.2,1.3c0,0,0.6,0.6,0.5,1.5v15.4c0,0-0.9,1.4-2.7,1.9
				C-271.1,340-270.1,322.2-273.1,320z"/>
			<path fill="#F2F2F2" d="M-297.4,336.3c0,0-2.1-6.9-10.1-7c0,0,9.2-2.5,14.8,0c0,0,2,0.9,2,2.8c0,0,0.4,1.9-2.3,3.1L-297.4,336.3z
				"/>
		</g>
		<g display="inline">
			<g>
				<path fill="#FFFFFF" d="M-239.6,347.3c0,0,1.9-0.7,1.5-2.3c0,0-0.2-2.3-4.6-2.3c0,0-5.3-0.4-9,1.6c-2.1,1.2-3.3,3.6-3,6
					c0.5,3.7,2.3,10.8,9.2,17.4l-3.6,24.4h22.4l-4-25.7c0,0,8.4-5,7.5-13.4c0,0-5,2-7.1-2.9c0,0-3.7,2.5-7.9-0.8
					c0,0-5.4,1.8-5.1,1.7c0.3-0.1,9.8,4.9,10,4.9c0.2-0.1,0.3,2.9-1.9,2.3l-10.5-5.5c0,0-5-2.5-2.3-3.1L-239.6,347.3z"/>
				<path fill="#FFFFFF" d="M-252.4,341.5c0,0,2.9-1.1,5.6-1.5v-6.9c0-0.4-0.2-0.8-0.5-1.1c-0.8-0.7-2.6-1.6-4.6,0
					c-0.3,0.3-0.5,0.6-0.5,1.1V341.5z"/>
				<path fill="#FFFFFF" d="M-244.6,340.1h5.8v-6.4c0-0.5-0.2-0.9-0.6-1.1c-0.9-0.6-2.8-1.4-4.7,0c-0.3,0.2-0.5,0.7-0.5,1.1V340.1z"
					/>
				<path fill="#FFFFFF" d="M-236.2,341.5v-5c0-0.4,0.2-0.8,0.5-1.1c0.8-0.6,2.5-1.5,4.6,0c0.3,0.3,0.5,0.7,0.5,1.1v10.1
					c0,0-1.6,2.3-4.9,1.1C-235.4,347.8-233.1,344.2-236.2,341.5z"/>
				<path fill="#FFFFFF" d="M-227.7,337.8c0.8-0.7,2.7-1.8,4.3,0c0.2,0.3,0.4,0.6,0.4,0.9v10.4c0,0-2.2,3.2-5.2-0.3v-10
					C-228.2,338.5-228,338.1-227.7,337.8z"/>
			</g>
			<path fill="#F2F2F2" d="M-254.1,350.4c0,0,8.3,15.4,15.9,13.2c0,0,4.7-4.4,11.2-1.6c0,0-2.1,3.7-10.8,6.8l-1.3,23.1h-9.8
				l3.6-24.4C-245.4,367.6-253.2,358.8-254.1,350.4z"/>
			<path fill="#F2F2F2" d="M-250.3,331.2c0,0,1.9-0.5,3.4,1.5l0.1,7.3c0,0-1.2,0.2-2,0.4C-248.8,340.4-248.6,331.8-250.3,331.2z"/>
			<path fill="#F2F2F2" d="M-242.1,331.8c0,0,3.2,0.1,3.3,1.8v6.4c0,0-1.2,0-2,0C-240.8,340.1-240.5,332.3-242.1,331.8z"/>
			<path fill="#F2F2F2" d="M-233.9,334.6c0,0,1.2-0.3,2.5,0.7c0,0,0.8,0.4,0.8,1.3v10.1c0,0-0.7,0.9-2,1.3
				C-232.5,348-231.9,336.5-233.9,334.6z"/>
			<path fill="#F2F2F2" d="M-226.2,337c0,0,1.5-0.6,2.8,0.9c0,0,0.4,0.4,0.4,1v10.4c0,0-0.6,1-1.8,1.3
				C-224.9,350.5-224.2,338.5-226.2,337z"/>
			<path fill="#F2F2F2" d="M-242.6,348c0,0-1.4-4.7-6.8-4.7c0,0,6.2-1.7,9.9,0c0,0,1.3,0.6,1.4,1.9c0,0,0.3,1.3-1.6,2.1L-242.6,348z
				"/>
		</g>
		<g display="inline">
			<g>
				<path fill="#FFFFFF" d="M-344.6,347.3c0,0,1.9-0.7,1.5-2.3c0,0-0.2-2.3-4.6-2.3c0,0-5.3-0.4-9,1.6c-2.1,1.2-3.3,3.6-3,6
					c0.5,3.7,2.3,10.8,9.2,17.4l-3.6,24.4h22.4l-4-25.7c0,0,8.4-5,7.5-13.4c0,0-5,2-7.1-2.9c0,0-3.7,2.5-7.9-0.8
					c0,0-5.4,1.8-5.1,1.7s9.8,4.9,10,4.9c0.2-0.1,0.3,2.9-1.9,2.3l-10.5-5.5c0,0-5-2.5-2.3-3.1L-344.6,347.3z"/>
				<path fill="#FFFFFF" d="M-357.4,341.5c0,0,2.9-1.1,5.6-1.5v-6.9c0-0.4-0.2-0.8-0.5-1.1c-0.8-0.7-2.6-1.6-4.6,0
					c-0.3,0.3-0.5,0.6-0.5,1.1V341.5z"/>
				<path fill="#FFFFFF" d="M-349.6,340.1h5.8v-6.4c0-0.5-0.2-0.9-0.6-1.1c-0.9-0.6-2.8-1.4-4.7,0c-0.3,0.2-0.5,0.7-0.5,1.1
					L-349.6,340.1L-349.6,340.1z"/>
				<path fill="#FFFFFF" d="M-341.2,341.5v-5c0-0.4,0.2-0.8,0.5-1.1c0.8-0.6,2.5-1.5,4.6,0c0.3,0.3,0.5,0.7,0.5,1.1v10.1
					c0,0-1.6,2.3-4.9,1.1C-340.4,347.8-338.1,344.2-341.2,341.5z"/>
				<path fill="#FFFFFF" d="M-332.7,337.8c0.8-0.7,2.7-1.8,4.3,0c0.2,0.3,0.4,0.6,0.4,0.9v10.4c0,0-2.2,3.2-5.2-0.3v-10
					C-333.2,338.5-333,338.1-332.7,337.8z"/>
			</g>
			<path fill="#F2F2F2" d="M-359.1,350.4c0,0,8.3,15.4,15.9,13.2c0,0,4.7-4.4,11.2-1.6c0,0-2.1,3.7-10.8,6.8l-1.3,23.1h-9.8
				l3.6-24.4C-350.4,367.6-358.2,358.8-359.1,350.4z"/>
			<path fill="#F2F2F2" d="M-355.3,331.2c0,0,1.9-0.5,3.4,1.5l0.1,7.3c0,0-1.2,0.2-2,0.4C-353.8,340.4-353.6,331.8-355.3,331.2z"/>
			<path fill="#F2F2F2" d="M-347.1,331.8c0,0,3.2,0.1,3.3,1.8v6.4c0,0-1.2,0-2,0C-345.8,340.1-345.5,332.3-347.1,331.8z"/>
			<path fill="#F2F2F2" d="M-338.9,334.6c0,0,1.2-0.3,2.5,0.7c0,0,0.8,0.4,0.8,1.3v10.1c0,0-0.7,0.9-2,1.3
				C-337.5,348-336.9,336.5-338.9,334.6z"/>
			<path fill="#F2F2F2" d="M-331.2,337c0,0,1.5-0.6,2.8,0.9c0,0,0.4,0.4,0.4,1v10.4c0,0-0.6,1-1.8,1.3
				C-329.9,350.5-329.2,338.5-331.2,337z"/>
			<path fill="#F2F2F2" d="M-347.6,348c0,0-1.4-4.7-6.8-4.7c0,0,6.2-1.7,9.9,0c0,0,1.3,0.6,1.4,1.9c0,0,0.3,1.3-1.6,2.1L-347.6,348z
				"/>
		</g>
		<g display="inline">
			<path fill="#002430" d="M-438.6,496.4c0-0.6-0.3-0.9-0.9-0.9h-1.8v-4.7h5.4c2,0,2.9,0.9,2.9,2.9v9.3h2.1c1.1,0,1.9-0.1,2.4-1
				l6-11.2h6l-6.7,12.3c-0.9,1.7-1.9,2.2-1.9,2.2v0.1c0,0,1,0.3,1.9,2.1l3.8,7.6c0.4,0.9,1.1,1,2.1,1h0.8v4.7h-3.2
				c-2.2,0-3.2-0.3-4.2-2.2l-4.9-9.8c-0.5-1-1.4-1-2.6-1h-1.8v13h-5.5L-438.6,496.4L-438.6,496.4z"/>
			<path fill="#002430" d="M-413.8,516h1.8c0.6,0,0.9-0.3,0.9-0.9v-24.2h5l11.3,16.5c1.2,1.7,2.5,4.2,2.5,4.2h0.1
				c0,0-0.3-2.5-0.3-4.2v-13.7c0-2,0.8-2.9,2.9-2.9h5.4v4.7h-1.8c-0.6,0-0.9,0.3-0.9,0.9v24.2h-4.9l-11.3-16.5
				c-1.2-1.7-2.5-4.2-2.5-4.2h-0.1c0,0,0.3,2.5,0.3,4.2v13.6c0,2-0.8,2.9-2.9,2.9h-5.4V516L-413.8,516L-413.8,516z"/>
			<path fill="#002430" d="M-366.3,490.3c8.8,0,15.4,6.7,15.4,15.2c0,8.8-6.6,15.6-15.4,15.6s-15.4-6.8-15.4-15.6
				C-381.7,497-375,490.3-366.3,490.3z M-366.3,516c5.4,0,9.7-4.5,9.7-10.5c0-5.7-4.3-10.1-9.7-10.1c-5.4,0-9.7,4.4-9.7,10.1
				C-376,511.5-371.6,516-366.3,516z"/>
			<path fill="#002430" d="M-333.2,490.3c3.8,0,11.3,1.6,11.3,6.7v3.3h-5v-1.7c0-2.2-3.6-3.2-6.2-3.2c-5.3,0-9.5,3.8-9.5,10
				c0,5.8,4.3,10.5,9.7,10.5c5.6,0,9-3.9,9-3.9l2.9,3.9c0,0-4.3,5.1-12,5.1c-9.1,0-15.3-6.8-15.3-15.7
				C-348.3,496.9-341.9,490.3-333.2,490.3z"/>
			<path fill="#002430" d="M-316.5,496.4c0-0.6-0.3-0.9-0.9-0.9h-1.8v-4.7h5.4c2,0,2.9,0.9,2.9,2.9v9.3h2.1c1.1,0,1.9-0.1,2.4-1
				l6-11.2h6l-6.7,12.3c-0.9,1.7-1.9,2.2-1.9,2.2v0.1c0,0,1,0.3,1.9,2.1l3.8,7.6c0.4,0.9,1.1,1,2.1,1h0.8v4.7h-3.2
				c-2.2,0-3.2-0.3-4.2-2.2l-4.9-9.8c-0.5-1-1.4-1-2.6-1h-1.8v13h-5.5L-316.5,496.4L-316.5,496.4L-316.5,496.4z"/>
			<path fill="#002430" d="M-291.9,516h0.7c0.7,0,1.1-0.2,1.3-0.9l8.9-24.2h5.8l8.8,24.2c0.3,0.8,0.6,0.9,1.3,0.9h0.7v4.7h-3.3
				c-2.1,0-2.9-0.5-3.5-2.4l-1.8-5.2h-10.2l-1.9,5.1c-0.7,1.9-1.4,2.4-3.5,2.4h-3.3V516z M-274.4,508.5l-2.6-7.5
				c-0.5-1.6-1.2-4.5-1.2-4.5l0,0c0,0-0.6,2.8-1.2,4.5l-2.6,7.5H-274.4z"/>
			<path fill="#002430" d="M-255.8,495.5h-4.6c-0.6,0-0.9,0.3-0.9,0.9v1.8h-4.8v-4.7c0-2,0.7-2.7,2.7-2.7h20.8c2,0,2.7,0.7,2.7,2.7
				v4.7h-4.8v-1.8c0-0.6-0.3-0.9-0.9-0.9h-4.6v25.2h-5.5L-255.8,495.5L-255.8,495.5z"/>
			<path fill="#002430" d="M-234.4,496.4c0-0.6-0.3-0.9-0.9-0.9h-1.8v-4.7h5.4c2,0,2.9,0.9,2.9,2.9v9.8h13.1v-9.8
				c0-2,0.9-2.9,2.9-2.9h5.4v4.7h-1.8c-0.6,0-0.9,0.3-0.9,0.9v24.2h-5.5v-12.5h-13.3v12.5h-5.5L-234.4,496.4L-234.4,496.4z"/>
			<path fill="#002430" d="M-189.4,490.3c8.8,0,15.4,6.7,15.4,15.2c0,8.8-6.6,15.6-15.4,15.6s-15.4-6.8-15.4-15.6
				C-204.8,497-198.2,490.3-189.4,490.3z M-189.4,516c5.4,0,9.7-4.5,9.7-10.5c0-5.7-4.3-10.1-9.7-10.1s-9.7,4.4-9.7,10.1
				C-199.1,511.5-194.8,516-189.4,516z"/>
			<path fill="#002430" d="M-172.1,516h1.8c0.6,0,0.9-0.3,0.9-0.9v-24.2h5l11.3,16.5c1.2,1.7,2.5,4.2,2.5,4.2h0.1
				c0,0-0.3-2.5-0.3-4.2v-13.7c0-2,0.8-2.9,2.9-2.9h5.4v4.7h-1.8c-0.6,0-0.9,0.3-0.9,0.9v24.2h-4.9l-11.3-16.5
				c-1.2-1.7-2.5-4.2-2.5-4.2h-0.1c0,0,0.3,2.5,0.3,4.2v13.6c0,2-0.8,2.9-2.9,2.9h-5.5V516z"/>
		</g>
		<polygon display="inline" fill="#F4544D" points="-242.8,471.4 -159.9,390 -186.2,394.3 		"/>
		<polygon display="inline" fill="#F4544D" points="-426.9,390 -344.1,471.4 -400.7,394.3 		"/>
		<polygon display="inline" fill="#F4544D" points="-427.8,440.5 -354.8,477.7 -418.4,439.6 		"/>
		<polygon display="inline" fill="#F4544D" points="-232.1,477.7 -159.1,440.5 -168.4,439.6 		"/>
		<path display="inline" fill="#F2F2F2" d="M-283.2,405c0,0-17,14.6-21,22.2c0,0-1.8,4.7,0.6,8.6c0,0,2.4,4,11,10.4
			c0,0-12.3-11.6-8.2-18C-300.7,428.2-298.3,421.1-283.2,405z"/>
		<path display="inline" fill="none" stroke="#FFFFFF" stroke-linecap="round" stroke-miterlimit="10" d="M-295.5,274.3
			c0,0-43.4,19.8-83.1,17.5v78.4c0,3.5,0.5,7.1,1.5,10.5c4.7,16.6,23.3,62.5,86.7,82.3c0,0,63.4-22,82.1-84.6c1-3.4,1.5-7,1.5-10.6
			v-75.4c0,0-31.9,4.8-63.8-12"/>
		<path display="inline" fill="#264BA8" d="M-382.2,530.5h-5.4v3.3h5.3v1.9h-5.3v4.5h5.4v1.9h-7.5v-13.6h7.5V530.5z"/>
		<path display="inline" fill="#264BA8" d="M-375.5,537.5l-3.1-3.9h2.4l1.9,2.5l1.9-2.5h2.4l-3.2,3.9l3.7,4.6h-2.4l-2.5-3.2
			l-2.6,3.2h-2.4L-375.5,537.5z"/>
		<path display="inline" fill="#264BA8" d="M-364.9,540.3h5.1v1.9h-9l5.5-6.7h-4.4v-1.8h8.3L-364.9,540.3z"/>
		<path display="inline" fill="#264BA8" d="M-349.4,538.3h-6.1c0.1,0.7,0.3,1.3,0.7,1.7c0.4,0.4,0.9,0.6,1.6,0.6
			c0.5,0,0.9-0.1,1.2-0.4c0.3-0.2,0.7-0.7,1.1-1.3l1.7,0.9c-0.3,0.4-0.5,0.8-0.8,1.1s-0.6,0.6-0.9,0.8s-0.7,0.3-1.1,0.4
			c-0.4,0.1-0.8,0.1-1.2,0.1c-1.3,0-2.3-0.4-3.1-1.2s-1.2-1.9-1.2-3.3c0-1.4,0.4-2.4,1.1-3.3c0.8-0.8,1.8-1.2,3-1.2
			c1.3,0,2.3,0.4,3,1.2s1.1,1.9,1.1,3.3L-349.4,538.3z M-351.4,536.7c-0.3-1.1-0.9-1.6-2-1.6c-0.2,0-0.5,0-0.7,0.1s-0.4,0.2-0.6,0.3
			s-0.3,0.3-0.4,0.5s-0.2,0.4-0.3,0.7H-351.4z"/>
		<path display="inline" fill="#264BA8" d="M-346.9,537.8c0-1.2,0.4-2.3,1.3-3.2s2-1.3,3.2-1.3c1.3,0,2.4,0.4,3.3,1.3
			c0.9,0.9,1.3,1.9,1.3,3.2s-0.4,2.4-1.3,3.2c-0.9,0.9-2,1.3-3.3,1.3s-2.4-0.4-3.2-1.3C-346.5,540.2-346.9,539.1-346.9,537.8z
			M-344.9,537.8c0,0.9,0.2,1.5,0.7,2s1.1,0.8,1.9,0.8s1.4-0.2,1.9-0.7s0.7-1.2,0.7-2s-0.2-1.5-0.7-2s-1.1-0.8-1.9-0.8
			s-1.4,0.3-1.8,0.8S-344.9,537-344.9,537.8z"/>
		<path display="inline" fill="#F4544D" d="M-324.1,533.9h5.9v-5.3h2v13.6h-2v-6.3h-5.9v6.3h-2v-13.6h2V533.9z"/>
		<path display="inline" fill="#F4544D" d="M-305.2,533.6h2v8.6h-2v-0.9c-0.8,0.8-1.7,1.1-2.6,1.1c-1.2,0-2.2-0.4-2.9-1.3
			c-0.8-0.9-1.2-2-1.2-3.3s0.4-2.4,1.2-3.2s1.7-1.3,2.9-1.3c1,0,1.9,0.4,2.7,1.2v-0.9L-305.2,533.6L-305.2,533.6z M-309.9,537.8
			c0,0.8,0.2,1.5,0.7,2s1,0.8,1.7,0.8c0.7,0,1.3-0.3,1.8-0.8s0.7-1.2,0.7-2s-0.2-1.5-0.7-2s-1-0.8-1.8-0.8c-0.7,0-1.2,0.3-1.7,0.8
			C-309.7,536.4-309.9,537.1-309.9,537.8z"/>
		<path display="inline" fill="#F4544D" d="M-292.3,534v2.6c-0.5-0.6-0.9-0.9-1.2-1.1c-0.4-0.2-0.8-0.3-1.2-0.3
			c-0.7,0-1.4,0.3-1.9,0.8s-0.7,1.2-0.7,2s0.2,1.5,0.7,2s1.1,0.8,1.8,0.8c0.5,0,0.9-0.1,1.3-0.3c0.4-0.2,0.8-0.6,1.2-1.2v2.6
			c-0.8,0.4-1.6,0.6-2.4,0.6c-1.3,0-2.4-0.4-3.3-1.3c-0.9-0.9-1.3-1.9-1.3-3.2s0.5-2.4,1.4-3.2s2-1.3,3.3-1.3
			C-293.8,533.4-293,533.6-292.3,534z"/>
		<path display="inline" fill="#F4544D" d="M-286.1,527.3v9.1l2.8-2.8h2.7l-3.7,3.6l4,5h-2.7l-2.8-3.6l-0.3,0.3v3.3h-2v-14.8
			L-286.1,527.3L-286.1,527.3z"/>
		<path display="inline" fill="#F4544D" d="M-275.3,535.4v6.7h-2v-6.7h-0.7v-1.8h0.7v-3.3c0-1.1,0.2-1.8,0.6-2.3
			c0.5-0.6,1.3-0.9,2.2-0.9c0.4,0,0.8,0.1,1.3,0.3v2l-0.2-0.1c-0.4-0.2-0.8-0.3-1.1-0.3c-0.4,0-0.6,0.1-0.7,0.4
			c-0.1,0.2-0.2,0.7-0.2,1.4v2.8h2.3v1.8L-275.3,535.4L-275.3,535.4z"/>
		<path display="inline" fill="#F4544D" d="M-262.1,538.3h-6.1c0.1,0.7,0.3,1.3,0.7,1.7s0.9,0.6,1.6,0.6c0.5,0,0.9-0.1,1.2-0.4
			c0.3-0.2,0.7-0.7,1.1-1.3l1.7,0.9c-0.3,0.4-0.5,0.8-0.8,1.1c-0.3,0.3-0.6,0.6-0.9,0.8s-0.7,0.3-1.1,0.4c-0.4,0.1-1,0.3-1.4,0.3
			c-1.3,0-2.3-0.4-3.1-1.2c-0.8-0.8-1.2-1.9-1.2-3.3c0-1.4,0.4-2.4,1.1-3.3c0.8-0.8,1.8-1.2,3-1.2c1.3,0,2.3,0.4,3,1.2
			c0.7,0.8,1.1,1.9,1.1,3.3L-262.1,538.3z M-264.2,536.7c-0.3-1.1-0.9-1.6-2-1.6c-0.2,0-0.5,0-0.7,0.1c-0.2,0.1-0.4,0.2-0.6,0.3
			s-0.3,0.3-0.4,0.5c-0.1,0.2-0.2,0.4-0.3,0.7H-264.2z"/>
		<path display="inline" fill="#F4544D" d="M-253.2,535l-1.6,0.9c-0.3-0.5-0.6-0.8-1-0.8c-0.2,0-0.3,0.1-0.5,0.2
			c-0.2,0.1-0.2,0.3-0.2,0.5c0,0.3,0.4,0.7,1.1,1c1,0.5,1.8,0.9,2.1,1.2c0.4,0.4,0.5,0.9,0.5,1.5c0,0.8-0.3,1.5-0.9,2.1
			c-0.6,0.5-1.3,0.8-2.1,0.8c-1.4,0-2.5-0.7-3-2.1l1.7-0.8c0.2,0.4,0.4,0.7,0.5,0.8c0.2,0.2,0.5,0.3,0.9,0.3c0.7,0,1-0.3,1-0.9
			c0-0.4-0.3-0.7-0.8-1c-0.2-0.1-0.4-0.2-0.6-0.3c-0.2-0.1-0.4-0.2-0.6-0.3c-0.6-0.3-1-0.6-1.2-0.8c-0.3-0.4-0.4-0.8-0.4-1.4
			c0-0.7,0.3-1.4,0.8-1.8c0.5-0.5,1.2-0.7,1.9-0.7C-254.5,533.4-253.7,533.9-253.2,535z"/>
		<path display="inline" fill="#F4544D" d="M-247,535.4v6.7h-2v-6.7h-0.8v-1.8h0.8v-3.1h2v3.1h1.5v1.8H-247z"/>
		<path display="inline" fill="#1ABC9C" d="M-231.7,540.2h5.1v1.9h-9.1l4.6-5.7c0.5-0.6,0.9-1.1,1.2-1.5s0.6-0.8,0.7-1
			c0.3-0.6,0.5-1,0.5-1.5c0-0.6-0.2-1.2-0.7-1.6c-0.5-0.4-1-0.6-1.7-0.6c-1.4,0-2.2,0.8-2.4,2.4h-2c0.3-2.9,1.8-4.3,4.3-4.3
			c1.2,0,2.3,0.4,3.1,1.2s1.3,1.8,1.3,2.9c0,0.7-0.2,1.5-0.6,2.2c-0.2,0.4-0.5,0.8-0.9,1.3s-0.9,1.1-1.5,1.8L-231.7,540.2z"/>
		<path display="inline" fill="#1ABC9C" d="M-222.6,535.3c0-2.2,0.5-3.9,1.5-5.2c0.9-1.2,2-1.7,3.3-1.7s2.4,0.6,3.3,1.7
			c1,1.3,1.5,3,1.5,5.3c0,2.2-0.5,4-1.5,5.3c-0.9,1.2-2,1.7-3.3,1.7s-2.4-0.6-3.3-1.7C-222.1,539.3-222.6,537.6-222.6,535.3z
			M-220.5,535.3c0,1.5,0.3,2.8,0.8,3.8s1.2,1.5,2,1.5s1.5-0.5,2-1.5s0.8-2.2,0.8-3.7s-0.3-2.7-0.8-3.7s-1.2-1.5-2-1.5
			s-1.5,0.5-2,1.5C-220.3,532.6-220.5,533.8-220.5,535.3z"/>
		<path display="inline" fill="#1ABC9C" d="M-206.9,530.5h-2.3l1.1-1.9h3.3v13.6h-2L-206.9,530.5L-206.9,530.5z"/>
		<path display="inline" fill="#1ABC9C" d="M-190.9,530.5h-4.2l-0.7,2.2c0.1,0,0.2,0,0.3,0s0.2,0,0.3,0c1.3,0,2.4,0.4,3.2,1.3
			c0.8,0.9,1.3,2,1.3,3.4s-0.5,2.6-1.4,3.5s-2.2,1.4-3.6,1.4c-1.8,0-3.2-0.8-4.3-2.5l1.5-1.3c0.4,0.7,0.9,1.2,1.3,1.5s1,0.4,1.6,0.4
			c0.8,0,1.5-0.3,2.1-0.9c0.6-0.6,0.8-1.3,0.8-2.2s-0.3-1.6-0.8-2.1c-0.6-0.6-1.2-0.9-2.1-0.9c-0.9,0-1.7,0.4-2.4,1.2h-0.7l2.1-7.1
			h5.6L-190.9,530.5L-190.9,530.5z"/>
	</g>
	<g>
		<path fill="#002430" stroke="#1ABC9C" stroke-width="5" stroke-miterlimit="10" d="M-182,258.7c14.5,1.4,52.7,1.6,89.1-28.1
			c0,0,25.6,33.2,85.6,29.1c3.2-0.2,5.9,2.3,5.9,5.5v77.9c0,3.2-0.4,6.4-1.2,9.5c-4.3,16.7-22.5,66.6-90.3,92.2
			c0,0-76.9-20.3-94.2-91c-0.7-2.9-1.1-5.9-1.1-9v-80.6C-188.1,260.9-185.3,258.3-182,258.7z"/>
		<path fill="#053947" stroke="#1ABC9C" stroke-width="5" stroke-miterlimit="10" d="M-92.8,444.8c0,0-76.9-20.3-94.2-91
			c-0.7-2.9-1.1-5.9-1.1-9v-80.6c0-3.3,2.8-5.9,6.1-5.5c14.5,1.4,52.7,1.6,89.1-28.1"/>
		<path fill="#E74C3C" d="M-52.2,449.7c0,0,57.1-77.3,56.6-77.2s26.3-4.3,26.3-4.3L28.1,396L-52.2,449.7z"/>
		<polygon fill="#E74C3C" points="-41.5,449.9 22.2,411.9 31.5,412.7 26.7,421 		"/>
		<path fill="#E74C3C" d="M-138.5,449.7c0,0-57.1-77.3-56.6-77.2s-26.3-4.3-26.3-4.3l2.6,27.8L-138.5,449.7z"/>
		<polygon fill="#E74C3C" points="-149.2,449.9 -212.8,411.9 -222.2,412.7 -217.4,421 		"/>
		<g>
			<path fill="#FFFFFF" d="M-113.5,416.2c0,0,2.3-1.1,4.5-2.9c1.1-0.9,2.2-2,3-3.2c1.1,1.5,2.5,3.1,4,4.5c3.5,3.4,7.4,6.2,7.4,6.2
				s-2.3-2.2-4.6-5.1c-2.3-2.9-4.6-6.5-4.8-9.6c-0.2-3.3,3.1-8.5,7.1-13.8c5-6.6,11.2-13.2,11.2-13.2s-6.8,6-12.7,12.1
				c-3.5,3.6-6.6,7.2-8.3,10.1c-1.9-2.8-4.9-5.7-7.6-8.1c-3.7-3.3-6.8-5.5-6.8-5.5s2.9,2.8,6,6.6s6.3,8.3,6.6,11.4
				c0.3,2.9-1.2,5.7-2.6,7.6C-112.3,415.2-113.5,416.2-113.5,416.2z"/>
			<path fill="#FFFFFF" d="M-66.8,416.4v-3.2l0,0c0.6,0,1-0.2,1.3-0.5c0.3-0.3,0.5-0.9,0.5-1.7v-11.9c0-0.8-0.2-1.3-0.5-1.7
				c-0.3-0.3-0.8-0.5-1.3-0.5l0,0v-3.2l0,0c1.1,0,2.1,0.2,2.9,0.6c0.8,0.4,1.4,1.1,1.8,1.9c0.4,0.8,0.6,1.8,0.6,3v11.5
				c0,1.2-0.2,2.2-0.6,3c-0.4,0.8-1,1.5-1.8,1.9C-64.7,416.2-65.7,416.4-66.8,416.4L-66.8,416.4z M-122.8,397.2h6V394h-9.5v22.1h9.5
				v-3.2h-6v-6.5h4.8v-3h-4.8V397.2L-122.8,397.2z M-66.8,393.8v3.2c-0.6,0-1,0.2-1.3,0.5c-0.3,0.3-0.5,0.9-0.5,1.7v11.9
				c0,0.8,0.2,1.3,0.5,1.7c0.3,0.3,0.8,0.5,1.3,0.5v3.2c-1.1,0-2.1-0.2-2.9-0.6c-0.8-0.4-1.4-1.1-1.8-1.9c-0.4-0.8-0.6-1.8-0.6-3
				v-11.5c0-1.2,0.2-2.2,0.6-3c0.4-0.8,1-1.5,1.8-1.9C-68.9,394-68,393.8-66.8,393.8L-66.8,393.8z M-95.3,394v3.2h6.3l-6.6,15.8v3.1
				h10.2v-3.2h-6.7l6.6-15.8V394L-95.3,394L-95.3,394z M-79.9,397.2h6V394h-9.5v22.1h9.5v-3.2h-6v-6.5h4.8v-3h-4.8V397.2z"/>
			<path fill="#FFFFFF" d="M-104,393.3c0-1.7-1.4-3-3-3c-1.7,0-3,1.4-3,3c0,1.7,1.4,3,3,3C-105.3,396.3-104,394.9-104,393.3z"/>
			<text transform="matrix(1 0 0 1 -61.8587 395.9095)" fill="#FFFFFF" font-family="'Arial-BoldMT'" font-size="2.6247px">TM</text>
		</g>
		<polyline fill="none" stroke="#1ABC9C" stroke-width="7" stroke-miterlimit="10" points="-126.1,250.3 -86.7,163.4 -88,223.4 
			-56.3,216.3 -72.6,249 		"/>
		<polygon fill="#FFFF00" points="-89.2,174.7 -126.3,253.4 -93.7,243.2 -93.8,288.5 -60.5,219.7 -89.7,226 		"/>
		<polygon fill="#E5DF03" points="-89.2,174.7 -103.3,238.3 -78.5,232.8 -93.8,288.5 -60.5,219.7 -89.7,226 		"/>
		<g>
			<g>
				<path fill="#FFFFFF" d="M-95.4,309.5c0,0,2.8-1.1,2.3-3.5c0,0-0.2-3.4-6.8-3.5c0,0-7.9-0.6-13.4,2.4c-3.2,1.7-4.9,5.3-4.4,8.9
					c0.7,5.4,3.5,16.1,13.7,25.8l-5.3,36.2h33.2l-5.9-38.1c0,0,12.5-7.4,11.2-19.9c0,0-7.4,3-10.6-4.3c0,0-5.5,3.7-11.8-1.2
					c0,0-8,2.6-7.6,2.5c0.5-0.1,14.5,7.3,14.9,7.2c0.4-0.1,0.5,4.3-2.8,3.5l-15.6-8.2c0,0-7.4-3.7-3.5-4.6L-95.4,309.5z"/>
				<path fill="#FFFFFF" d="M-114.4,301c0,0,4.3-1.7,8.4-2.3v-10.2c0-0.6-0.3-1.2-0.8-1.6c-1.2-1-3.9-2.4-6.9,0
					c-0.5,0.4-0.7,1-0.7,1.6C-114.4,288.5-114.4,301-114.4,301z"/>
				<path fill="#FFFFFF" d="M-102.8,298.8h8.6v-9.4c0-0.7-0.3-1.3-0.9-1.7c-1.4-0.9-4.1-2-6.9,0c-0.5,0.4-0.8,1-0.8,1.6V298.8
					L-102.8,298.8z"/>
				<path fill="#FFFFFF" d="M-90.3,301v-7.4c0-0.6,0.3-1.2,0.8-1.6c1.2-1,3.7-2.3,6.9,0.1c0.5,0.4,0.8,1,0.8,1.6v15
					c0,0-2.3,3.4-7.2,1.7C-89.1,310.3-85.7,304.9-90.3,301z"/>
				<path fill="#FFFFFF" d="M-77.8,295.5c1.2-1,4-2.7,6.5,0c0.3,0.4,0.5,0.9,0.5,1.4v15.5c0,0-3.2,4.7-7.7-0.5V297
					C-78.5,296.4-78.2,295.9-77.8,295.5z"/>
			</g>
			<path fill="#F2F2F2" d="M-116.9,314.2c0,0,12.3,22.9,23.5,19.5c0,0,7-6.6,16.6-2.3c0,0-3.2,5.5-16.1,10.2l0.1,34.3h-16.6
				l5.3-36.2C-104,339.6-115.5,326.6-116.9,314.2z"/>
			<path fill="#F2F2F2" d="M-111.2,285.7c0,0,2.8-0.7,5,2.2l0.1,10.8c0,0-1.7,0.3-3,0.6C-109.1,299.3-108.7,286.6-111.2,285.7z"/>
			<path fill="#F2F2F2" d="M-99.1,286.6c0,0,4.8,0.1,4.9,2.7v9.5c0,0-1.7,0-3,0C-97.2,298.8-96.6,287.3-99.1,286.6z"/>
			<path fill="#F2F2F2" d="M-86.9,290.7c0,0,1.8-0.4,3.8,1c0,0,1.2,0.6,1.2,1.9v15c0,0-1,1.4-2.9,1.9
				C-84.8,310.6-83.9,293.4-86.9,290.7z"/>
			<path fill="#F2F2F2" d="M-75.5,294.2c0,0,2.3-0.9,4.2,1.3c0,0,0.6,0.6,0.5,1.5v15.4c0,0-0.9,1.4-2.7,1.9
				C-73.5,314.2-72.5,296.5-75.5,294.2z"/>
			<path fill="#F2F2F2" d="M-99.8,310.6c0,0-2.1-6.9-10.1-7c0,0,9.2-2.5,14.8,0c0,0,2,0.9,2,2.8c0,0,0.4,1.9-2.3,3.1L-99.8,310.6z"
				/>
		</g>
		<g>
			<g>
				<path fill="#FFFFFF" d="M-42,321.5c0,0,1.9-0.7,1.5-2.3c0,0-0.2-2.3-4.6-2.3c0,0-5.3-0.4-9,1.6c-2.1,1.2-3.3,3.6-3,6
					c0.5,3.7,2.3,10.8,9.2,17.4l-3.6,24.4h22.4l-4-25.7c0,0,8.4-5,7.5-13.4c0,0-5,2-7.1-2.9c0,0-3.7,2.5-7.9-0.8
					c0,0-5.4,1.8-5.1,1.7s9.8,4.9,10,4.9c0.2-0.1,0.3,2.9-1.9,2.3l-10.5-5.5c0,0-5-2.5-2.3-3.1L-42,321.5z"/>
				<path fill="#FFFFFF" d="M-54.8,315.8c0,0,2.9-1.1,5.6-1.5v-6.9c0-0.4-0.2-0.8-0.5-1.1c-0.8-0.7-2.6-1.6-4.6,0
					c-0.3,0.3-0.5,0.6-0.5,1.1C-54.8,307.4-54.8,315.8-54.8,315.8z"/>
				<path fill="#FFFFFF" d="M-47,314.3h5.8v-6.4c0-0.5-0.2-0.9-0.6-1.1c-0.9-0.6-2.8-1.4-4.7,0c-0.3,0.2-0.5,0.7-0.5,1.1
					C-47,307.9-47,314.3-47,314.3z"/>
				<path fill="#FFFFFF" d="M-38.6,315.8v-5c0-0.4,0.2-0.8,0.5-1.1c0.8-0.6,2.5-1.5,4.6,0c0.3,0.3,0.5,0.7,0.5,1.1v10.1
					c0,0-1.6,2.3-4.9,1.1C-37.8,322.1-35.5,318.4-38.6,315.8z"/>
				<path fill="#FFFFFF" d="M-30.1,312.1c0.8-0.7,2.7-1.8,4.3,0c0.2,0.3,0.4,0.6,0.4,0.9v10.4c0,0-2.2,3.2-5.2-0.3v-10
					C-30.6,312.7-30.4,312.3-30.1,312.1z"/>
			</g>
			<path fill="#F2F2F2" d="M-56.5,324.7c0,0,8.3,15.4,15.9,13.2c0,0,4.7-4.4,11.2-1.6c0,0-2.1,3.7-10.8,6.8l-1.3,23.1h-9.8l3.6-24.4
				C-47.8,341.8-55.6,333.1-56.5,324.7z"/>
			<path fill="#F2F2F2" d="M-52.7,305.5c0,0,1.9-0.5,3.4,1.5l0.1,7.3c0,0-1.2,0.2-2,0.4C-51.2,314.6-51,306.1-52.7,305.5z"/>
			<path fill="#F2F2F2" d="M-44.5,306.1c0,0,3.2,0.1,3.3,1.8v6.4c0,0-1.2,0-2,0C-43.2,314.3-42.9,306.6-44.5,306.1z"/>
			<path fill="#F2F2F2" d="M-36.3,308.9c0,0,1.2-0.3,2.5,0.7c0,0,0.8,0.4,0.8,1.3V321c0,0-0.7,0.9-2,1.3
				C-34.9,322.3-34.3,310.7-36.3,308.9z"/>
			<path fill="#F2F2F2" d="M-28.6,311.2c0,0,1.5-0.6,2.8,0.9c0,0,0.4,0.4,0.4,1v10.4c0,0-0.6,1-1.8,1.3
				C-27.3,324.7-26.6,312.8-28.6,311.2z"/>
			<path fill="#F2F2F2" d="M-45,322.3c0,0-1.4-4.7-6.8-4.7c0,0,6.2-1.7,9.9,0c0,0,1.3,0.6,1.4,1.9c0,0,0.3,1.3-1.6,2.1L-45,322.3z"
				/>
		</g>
		<g>
			<g>
				<path fill="#FFFFFF" d="M-147,321.5c0,0,1.9-0.7,1.5-2.3c0,0-0.2-2.3-4.6-2.3c0,0-5.3-0.4-9,1.6c-2.1,1.2-3.3,3.6-3,6
					c0.5,3.7,2.3,10.8,9.2,17.4l-3.6,24.4h22.4l-4-25.7c0,0,8.4-5,7.5-13.4c0,0-5,2-7.1-2.9c0,0-3.7,2.5-7.9-0.8
					c0,0-5.4,1.8-5.1,1.7s9.8,4.9,10,4.9c0.2-0.1,0.3,2.9-1.9,2.3l-10.5-5.5c0,0-5-2.5-2.3-3.1L-147,321.5z"/>
				<path fill="#FFFFFF" d="M-159.8,315.8c0,0,2.9-1.1,5.6-1.5v-6.9c0-0.4-0.2-0.8-0.5-1.1c-0.8-0.7-2.6-1.6-4.6,0
					c-0.3,0.3-0.5,0.6-0.5,1.1V315.8z"/>
				<path fill="#FFFFFF" d="M-152,314.3h5.8v-6.4c0-0.5-0.2-0.9-0.6-1.1c-0.9-0.6-2.8-1.4-4.7,0c-0.3,0.2-0.5,0.7-0.5,1.1
					C-152,307.9-152,314.3-152,314.3z"/>
				<path fill="#FFFFFF" d="M-143.6,315.8v-5c0-0.4,0.2-0.8,0.5-1.1c0.8-0.6,2.5-1.5,4.6,0c0.3,0.3,0.5,0.7,0.5,1.1v10.1
					c0,0-1.6,2.3-4.9,1.1C-142.8,322.1-140.5,318.4-143.6,315.8z"/>
				<path fill="#FFFFFF" d="M-135.1,312.1c0.8-0.7,2.7-1.8,4.3,0c0.2,0.3,0.4,0.6,0.4,0.9v10.4c0,0-2.2,3.2-5.2-0.3v-10
					C-135.6,312.7-135.4,312.3-135.1,312.1z"/>
			</g>
			<path fill="#F2F2F2" d="M-161.5,324.7c0,0,8.3,15.4,15.9,13.2c0,0,4.7-4.4,11.2-1.6c0,0-2.1,3.7-10.8,6.8l-1.3,23.1h-9.8
				l3.6-24.4C-152.8,341.8-160.6,333.1-161.5,324.7z"/>
			<path fill="#F2F2F2" d="M-157.7,305.5c0,0,1.9-0.5,3.4,1.5l0.1,7.3c0,0-1.2,0.2-2,0.4C-156.2,314.6-156,306.1-157.7,305.5z"/>
			<path fill="#F2F2F2" d="M-149.5,306.1c0,0,3.2,0.1,3.3,1.8v6.4c0,0-1.2,0-2,0C-148.2,314.3-147.9,306.6-149.5,306.1z"/>
			<path fill="#F2F2F2" d="M-141.3,308.9c0,0,1.2-0.3,2.5,0.7c0,0,0.8,0.4,0.8,1.3V321c0,0-0.7,0.9-2,1.3
				C-139.9,322.3-139.3,310.7-141.3,308.9z"/>
			<path fill="#F2F2F2" d="M-133.6,311.2c0,0,1.5-0.6,2.8,0.9c0,0,0.4,0.4,0.4,1v10.4c0,0-0.6,1-1.8,1.3
				C-132.3,324.7-131.6,312.8-133.6,311.2z"/>
			<path fill="#F2F2F2" d="M-150,322.3c0,0-1.4-4.7-6.8-4.7c0,0,6.2-1.7,9.9,0c0,0,1.3,0.6,1.4,1.9c0,0,0.3,1.3-1.6,2.1L-150,322.3z
				"/>
		</g>
		<polygon fill="#F4544D" points="-52.2,449.7 30.7,368.2 4.4,372.5 		"/>
		<polygon fill="#F4544D" points="-221.3,368.2 -138.5,449.7 -195.1,372.5 		"/>
		<polygon fill="#F4544D" points="-222.2,412.7 -149.2,449.9 -212.8,411.9 		"/>
		<polygon fill="#F4544D" points="-41.5,449.9 31.5,412.7 22.2,411.9 		"/>
		<path fill="#F2F2F2" d="M-85.6,379.2c0,0-17,14.6-21,22.2c0,0-1.8,4.7,0.6,8.6c0,0,2.4,4,11,10.4c0,0-12.3-11.6-8.2-18
			C-103.1,402.5-100.7,395.4-85.6,379.2z"/>
		<path fill="none" stroke="#FFFFFF" stroke-linecap="round" stroke-miterlimit="10" d="M-97.9,248.5c0,0-43.4,19.8-83.1,17.5v78.4
			c0,3.5,0.5,7.1,1.5,10.5c4.7,16.6,23.3,62.5,86.7,82.3c0,0,63.4-22,82.1-84.6c1-3.4,1.5-7,1.5-10.6v-75.4c0,0-31.9,4.8-63.8-12"/>
	</g>
	<path display="none" fill="#E74C3C" d="M128.7,447.3c0,0,57.1-77.3,56.6-77.2s26.3-4.3,26.3-4.3l-2.6,27.8L128.7,447.3z"/>
	<polygon display="none" fill="#E74C3C" points="139.4,453.5 203.1,415.4 212.4,416.3 207.6,424.6 	"/>
	<path display="none" fill="#E74C3C" d="M27.4,447.3c0,0-57.1-77.3-56.6-77.2s-26.3-4.3-26.3-4.3l2.6,27.8L27.4,447.3z"/>
	<polygon display="none" fill="#E74C3C" points="16.7,453.5 -46.9,415.4 -56.3,416.3 -51.5,424.6 	"/>
	<polygon display="none" fill="#F4544D" points="128.7,447.3 211.6,365.8 185.3,370.1 	"/>
	<polygon display="none" fill="#F4544D" points="-55.4,365.8 27.4,447.3 -29.2,370.1 	"/>
	<polygon display="none" fill="#F4544D" points="-56.3,416.3 16.7,453.5 -46.9,415.4 	"/>
	<polygon display="none" fill="#F4544D" points="139.4,453.5 212.4,416.3 203.1,415.4 	"/>
</g>
<g id="Layer_3">
</g>
</svg>
